#!OML:ASF E:/inclinewalkrobotboard/Project1/Captureday1/Session1/subject1.ASF
:FULLY-SPECIFIED
:DEGREES
188
root 0 0 0 2.0825273551176755 1.226090996247311 -1.0173478907662359
lowerback 10.987979303420694 -0.2958349094588685 -2.2889192023261744
upperback 2.0042800421757883 -0.6952149836054922 1.1012206329724896
thorax -3.9393544050933946 -0.2544141235083548 2.419606571349447
lowerneck -6.573882931792075 -1.9700989471699626 -0.17442954560257606
upperneck 24.512862537035016 -3.0560236399734757 2.3787258900623773
head 9.250496084300629 -1.2779489895283336 0.5885972759801803
rclavicle 5.181578917159365E-15 2.6492540760218926E-15
rhumerus -8.319682546293274 13.806381299235959 -50.83551250549606
rradius 106.57235079414924
rwrist -42.52995728041423
rhand -4.100263536750505 -54.64287108891523
rfingers 7.125020000000007
rthumb 21.667487378329696 -83.25484928691495
lclavicle 1.8075307679492214E-15 3.841143517296037E-15
lhumerus -44.48041426481168 -7.524532122081326 85.38880786437569
lradius 61.86323922861553
lwrist 7.194686885664092
lhand -11.691268208629275 -28.958904369839754
lfingers 7.125020000000018
lthumb 14.362181447106344 0.6003538018400647
rfemur 1.2186360323566179 -0.5320999305651304 -2.996233080993848
rtibia -4.623618726276472
rfoot 0.9127081945779523 0.6545726613432516
rtoes -0.7460121824754056
lfemur 0.8691229006837675 -6.448604285743328 -10.189645613298682
ltibia 22.309746248823
lfoot -28.197379515316218 14.33632667036961
ltoes -60.04840809265048
189
root 0 0 0 2.0824685442837056 1.2261493587306327 -1.0166774871942685
lowerback 10.987658244638855 -0.2961790909528955 -2.2893448561915406
upperback 2.0030350620175 -0.69572512206705 1.1012379194355588
thorax -3.9405251996818684 -0.25465270630047443 2.4199180062060104
lowerneck -6.5762090590368585 -1.9698457532095204 -0.17448289360361635
upperneck 24.51423810469949 -3.0556394933472903 2.3779189314742477
head 9.251372278588686 -1.2777872042262524 0.5883345950196607
rclavicle 5.191737140850234E-15 2.6445424747055373E-15
rhumerus -8.317454293155262 13.798389017286453 -50.83034779454323
rradius 106.56862561790214
rwrist -42.533821469071
rhand -4.098829648979287 -54.64675820861483
rfingers 7.125020000000007
rthumb 21.668865864813295 -83.25871718149537
lclavicle 1.8205817854514365E-15 3.834059261825564E-15
lhumerus -44.483154797000935 -7.522522174669027 85.38699183054653
lradius 61.86278114826824
lwrist 7.193382282620696
lhand -11.690580395174692 -28.960284233133684
lfingers 7.125020000000018
lthumb 14.362907688302599 0.5989922854701177
rfemur 1.2194854916928834 -0.5324587067257984 -2.9980615248135987
rtibia -4.626187525955771
rfoot 0.9133875385144119 0.6550380950590271
rtoes -0.746294179067591
lfemur 0.8719709270409082 -6.450816624139792 -10.191940835976638
ltibia 22.308931458138538
lfoot -28.196575329258465 14.335603123106035
ltoes -60.03936632035083
190
root 0 0 0 2.0815567753593793 1.2256288986295707 -1.0159318879027417
lowerback 10.985833698237263 -0.2965017707449623 -2.2897757486770756
upperback 2.001474730457128 -0.6961952003739074 1.1014466809141576
thorax -3.9412002930149157 -0.2548590228823766 2.4204782163126763
lowerneck -6.5785469618507335 -1.9695002440015954 -0.17462882662561563
upperneck 24.517702841318947 -3.055171904504409 2.3774868321143368
head 9.252907030563044 -1.2775508800874924 0.5881976712511334
rclavicle 5.194831779579309E-15 2.6381153337573268E-15
rhumerus -8.318229329105032 13.790697305356261 -50.82767859037408
rradius 106.56004102173276
rwrist -42.538489395574395
rhand -4.096781248381751 -54.65023290417609
rfingers 7.125020000000007
rthumb 21.67083062725635 -83.26204161953234
lclavicle 1.8231423707081477E-15 3.827244822039778E-15
lhumerus -44.484429065999464 -7.521434530530989 85.3862083973665
lradius 61.86235416205122
lwrist 7.1926296558465665
lhand -11.690237340746716 -28.961042140119126
lfingers 7.125020000000018
lthumb 14.36325520784803 0.5982331475605385
rfemur 1.219814319630781 -0.5327073785648078 -2.9988928815203497
rtibia -4.626724259679648
rfoot 0.914004776218615 0.6553318187038282
rtoes -0.7461876553444753
lfemur 0.8725258542518288 -6.450858510749278 -10.193473859690386
ltibia 22.30980669547408
lfoot -28.194490254353404 14.333721155202328
ltoes -60.03240999361445
191
root 0 0 0 2.081182894133068 1.2244061911145745 -1.0183301856236189
lowerback 10.98864044627252 -0.29535257072134435 -2.288327271756885
upperback 2.0064527240363867 -0.6944844740831855 1.101617782488692
thorax -3.9373904491198592 -0.25404242679164 2.419675160379496
lowerneck -6.5692925655155525 -1.9703044762559543 -0.17385882177273138
upperneck 24.510255725379814 -3.0561966357774133 2.379705644113518
head 9.248826778715424 -1.278051660556649 0.5888978682502615
rclavicle 5.154152803709874E-15 2.6874591326693636E-15
rhumerus -8.342392317016524 13.81325856622437 -50.849759877601684
rradius 106.56997943888794
rwrist -42.51878200097193
rhand -4.10555698877053 -54.633658137519504
rfingers 7.125020000000007
rthumb 21.662368225572926 -83.24490207444714
lclavicle 1.7747198164515836E-15 3.855726048970836E-15
lhumerus -44.47393218917272 -7.528027849602166 85.39421593844665
lradius 61.861696122444386
lwrist 7.195603883192861
lhand -11.692482355197171 -28.956140646173452
lfingers 7.125020000000018
lthumb 14.361054484401567 0.6025501565294711
rfemur 1.2206967137345712 -0.5324599024281893 -2.9977007483761344
rtibia -4.626053889811704
rfoot 0.9132690792260032 0.6552603315741927
rtoes -0.7460227437783729
lfemur 0.8607925235893008 -6.4432026946312675 -10.18598644672366
ltibia 22.312180542911005
lfoot -28.197000786011657 14.335706237460935
ltoes -60.05873984801935
